<?xml version="1.0" standalone="no"?>
<!DOCTYPE svg PUBLIC "-//W3C//DTD SVG 20010904//EN"
 "http://www.w3.org/TR/2001/REC-SVG-20010904/DTD/svg10.dtd">
<svg version="1.0" xmlns="http://www.w3.org/2000/svg"
 width="2048.000000pt" height="2048.000000pt" viewBox="0 0 2048.000000 2048.000000"
 preserveAspectRatio="xMidYMid meet">

<g transform="translate(0.000000,2048.000000) scale(0.100000,-0.100000)"
fill="#000000" stroke="none">
<path d="M10562 20398 c-27 -46 -242 -411 -477 -813 -236 -401 -663 -1130
-950 -1620 -287 -489 -1010 -1722 -1607 -2740 -597 -1017 -1312 -2237 -1590
-2710 -278 -473 -659 -1123 -848 -1445 -928 -1583 -1247 -2126 -1590 -2710
-730 -1244 -814 -1387 -915 -1560 -56 -96 -105 -184 -108 -195 l-7 -20 16 20
c18 23 122 197 416 700 383 654 1470 2508 1703 2905 128 217 798 1360 1490
2540 692 1180 1638 2793 2103 3585 465 792 982 1674 1150 1960 168 286 493
840 722 1230 557 948 561 955 550 955 -5 0 -31 -37 -58 -82z"/>
<path d="M19830 7334 c-272 -13 -1705 -80 -3185 -149 -1479 -69 -2928 -136
-3220 -150 -291 -14 -1160 -54 -1930 -90 -770 -36 -1636 -76 -1925 -90 -289
-14 -916 -43 -1395 -65 -876 -40 -1156 -53 -1935 -90 -461 -21 -691 -32 -1845
-85 -1804 -83 -1929 -87 -1933 -74 -2 5 -12 9 -22 9 -18 0 -34 -36 -20 -45 5
-3 73 -1 152 5 162 11 697 38 1923 95 297 14 632 30 745 35 113 5 354 17 535
25 182 8 524 24 760 35 237 11 576 27 755 35 179 8 564 26 855 40 292 14 1016
47 1610 75 594 27 1863 86 2820 130 1842 85 4179 193 4530 210 116 5 408 19
650 30 242 11 724 34 1070 50 347 16 734 34 860 40 127 6 355 17 508 24 152 7
280 16 284 19 10 10 -102 7 -647 -19z"/>
</g>
</svg>
