<svg xmlns="http://www.w3.org/2000/svg" version="1.1" xmlns:xlink="http://www.w3.org/1999/xlink" xmlns:svgjs="http://svgjs.dev/svgjs" viewBox="0 0 800 400"><path d="M86.99551391601562,1.7937219142913818C86.99551391601562,1.7937219142913818,86.0986557006836,41.2556037902832,86.0986557006836,41.2556037902832C86.0986557006836,41.2556037902832,150.6726531982422,37.66816329956055,150.6726531982422,37.66816329956055C150.6726531982422,37.66816329956055,151.5695037841797,113.00448608398438,151.5695037841797,113.00448608398438C151.5695037841797,113.00448608398438,84.304931640625,112.10762023925781,84.304931640625,112.10762023925781C84.304931640625,112.10762023925781,80.71749114990234,168.60986328125,80.71749114990234,168.60986328125C80.71749114990234,168.60986328125,115.695068359375,169.50672912597656,115.695068359375,169.50672912597656C115.695068359375,169.50672912597656,115.695068359375,139.91030883789062,115.695068359375,139.91030883789062C115.695068359375,139.91030883789062,147.085205078125,145.29147338867188,147.085205078125,145.29147338867188C147.085205078125,145.29147338867188,151.5695037841797,172.1973114013672,151.5695037841797,172.1973114013672C151.5695037841797,172.1973114013672,148.87892150878906,209.86546325683594,148.87892150878906,209.86546325683594C148.87892150878906,209.86546325683594,118.38565063476562,208.96861267089844,118.38565063476562,208.96861267089844C118.38565063476562,208.96861267089844,99.55156707763672,222.42152404785156,99.55156707763672,222.42152404785156C99.55156707763672,222.42152404785156,69.05829620361328,219.73094177246094,69.05829620361328,219.73094177246094C69.05829620361328,219.73094177246094,77.13004302978516,277.1300354003906,77.13004302978516,277.1300354003906C77.13004302978516,277.1300354003906,112.10762023925781,279.82061767578125,112.10762023925781,279.82061767578125C112.10762023925781,279.82061767578125,122.86995697021484,246.6367645263672,122.86995697021484,246.6367645263672C122.86995697021484,246.6367645263672,156.05381774902344,250.22421264648438,156.05381774902344,250.22421264648438C156.05381774902344,250.22421264648438,156.05381774902344,296.8609924316406,156.05381774902344,296.8609924316406C156.05381774902344,296.8609924316406,150.6726531982422,321.97308349609375,150.6726531982422,321.97308349609375C150.6726531982422,321.97308349609375,112.10762023925781,316.5919189453125,112.10762023925781,316.5919189453125C112.10762023925781,316.5919189453125,111.21076202392578,351.56951904296875,111.21076202392578,351.56951904296875C111.21076202392578,351.56951904296875,71.7488784790039,349.7757873535156,71.7488784790039,349.7757873535156C71.7488784790039,349.7757873535156,73.5426025390625,381.1659240722656,73.5426025390625,381.1659240722656" fill="none" stroke-width="1" stroke="ff8800" stroke-linecap="butt"></path><defs><linearGradient id="SvgjsLinearGradient1000"><stop stop-color="hsl(37, 99%, 67%)" offset="0"></stop><stop stop-color="hsl(316, 73%, 52%)" offset="1"></stop></linearGradient></defs></svg>