<svg xmlns="http://www.w3.org/2000/svg" version="1.1" xmlns:xlink="http://www.w3.org/1999/xlink" xmlns:svgjs="http://svgjs.dev/svgjs" viewBox="0 0 800 400"><path d="M318.3856506347656,4.484304904937744C318.3856506347656,4.484304904937744,318.3856506347656,34.080718994140625,318.3856506347656,34.080718994140625C318.3856506347656,34.080718994140625,457.39910888671875,30.49327278137207,457.39910888671875,30.49327278137207C457.39910888671875,30.49327278137207,457.39910888671875,75.3363265991211,457.39910888671875,75.3363265991211C457.39910888671875,75.3363265991211,398.2062683105469,76.23318481445312,398.2062683105469,76.23318481445312C398.2062683105469,76.23318481445312,398.2062683105469,113.00448608398438,398.2062683105469,113.00448608398438C398.2062683105469,113.00448608398438,320.17938232421875,109.41703796386719,320.17938232421875,109.41703796386719C320.17938232421875,109.41703796386719,317.4888000488281,168.60986328125,317.4888000488281,168.60986328125C317.4888000488281,168.60986328125,399.1031494140625,165.91928100585938,399.1031494140625,165.91928100585938C399.1031494140625,165.91928100585938,400,219.73094177246094,400,219.73094177246094C400,219.73094177246094,466.3677062988281,220.6278076171875,466.3677062988281,220.6278076171875C466.3677062988281,220.6278076171875,466.3677062988281,270.8520202636719,466.3677062988281,270.8520202636719C466.3677062988281,270.8520202636719,400,269.05828857421875,400,269.05828857421875C400,269.05828857421875,399.1031494140625,313.0044860839844,399.1031494140625,313.0044860839844C399.1031494140625,313.0044860839844,305.82958984375,309.41705322265625,305.82958984375,309.41705322265625C305.82958984375,309.41705322265625,308.5201721191406,350.6726379394531,308.5201721191406,350.6726379394531C308.5201721191406,350.6726379394531,404.48431396484375,355.1569519042969,404.48431396484375,355.1569519042969C404.48431396484375,355.1569519042969,407.1748962402344,391.0314025878906,407.1748962402344,391.0314025878906" fill="none" stroke-width="1" stroke="hsl(340, 45%, 50%)" stroke-linecap="round" stroke-dasharray="0 0" stroke-opacity="1" transform="matrix(1.09974375,0,0,1.09974375,-24.609575099849735,-17.482958689245635)"></path><defs><linearGradient id="SvgjsLinearGradient1001" gradientTransform="rotate(0, 0.5, 0.5)"><stop stop-color="hsl(37, 99%, 67%)" offset="0"></stop><stop stop-color="hsl(316, 73%, 52%)" offset="1"></stop></linearGradient></defs></svg>