<?xml version="1.0" standalone="no"?>
<!DOCTYPE svg PUBLIC "-//W3C//DTD SVG 20010904//EN"
 "http://www.w3.org/TR/2001/REC-SVG-20010904/DTD/svg10.dtd">
<svg version="1.0" xmlns="http://www.w3.org/2000/svg"
 width="2048.000000pt" height="2048.000000pt" viewBox="0 0 2048.000000 2048.000000"
 preserveAspectRatio="xMidYMid meet">

<g transform="translate(0.000000,2048.000000) scale(0.100000,-0.100000)"
fill="#ff8800" stroke="none">
<path d="M3136 20449 c-3 -17 -6 -55 -6 -84 0 -29 -11 -90 -24 -136 -34 -118
-52 -211 -77 -384 -11 -82 -38 -238 -59 -345 -49 -250 -55 -293 -85 -600 -22
-238 -28 -319 -40 -560 -2 -52 -7 -414 -10 -805 -6 -798 -14 -1398 -20 -1465
-2 -25 -7 -126 -10 -225 -4 -99 -8 -196 -10 -215 -10 -117 -16 -990 -20 -2965
-3 -1232 -7 -2469 -10 -2750 -5 -487 -16 -3033 -18 -4055 -1 -431 2 -642 18
-1065 3 -66 7 -194 10 -285 4 -91 6 -502 7 -915 1 -852 8 -1005 60 -1205 20
-80 45 -150 75 -215 19 -42 73 -136 83 -145 3 -3 27 -31 53 -63 127 -150 311
-245 558 -286 110 -19 164 -22 410 -21 156 1 361 5 454 9 162 8 863 5 990 -3
61 -4 332 -12 750 -21 127 -3 282 -7 345 -10 63 -3 324 -7 580 -10 1297 -14
1624 -19 3000 -42 1033 -18 4878 -8 4911 13 14 8 589 6 804 -2 263 -11 804
-12 1034 -1 96 4 265 8 375 8 191 -1 274 -3 481 -16 50 -2 155 -7 235 -10 80
-3 174 -7 210 -10 217 -15 1100 -23 1219 -11 25 3 181 10 346 15 424 15 559
21 648 28 l77 6 0 218 0 219 -1287 -5 c-709 -3 -2172 -10 -3253 -15 -3866 -19
-6407 -22 -8685 -11 -1265 6 -2645 11 -3068 11 -753 0 -767 1 -779 20 -7 11
-23 20 -35 20 -13 0 -23 5 -23 12 0 6 -6 19 -14 27 -9 10 -17 51 -21 106 -4
50 -9 104 -12 120 -3 17 -5 42 -4 58 0 25 -7 31 -26 25 -15 -5 -19 135 -22
717 -1 325 -6 898 -11 1275 -16 1136 -20 1669 -35 4245 -28 4612 -37 5900 -42
5905 -3 3 -2 -483 1 -1080 4 -597 11 -1850 16 -2785 12 -2193 27 -4283 40
-5785 16 -1721 17 -2662 4 -2667 -9 -3 -36 99 -49 192 -6 39 -15 1017 -34
3670 -35 4615 -48 12337 -23 12935 7 168 15 328 19 355 13 96 21 7 24 -260 3
-232 4 -245 9 -120 4 97 7 120 9 75 3 -42 7 -5 12 105 8 166 26 312 36 301 3
-3 9 -43 13 -88 l7 -83 2 67 c1 75 17 131 30 109 7 -11 10 -11 14 0 3 8 6 -11
8 -41 2 -55 2 -55 9 -15 4 22 8 34 9 27 3 -28 21 1 22 36 l1 37 9 -30 c4 -16
12 -131 16 -255 l8 -225 5 230 c3 145 9 229 15 228 39 -6 65 -604 95 -2203 11
-601 24 -1174 40 -1825 5 -220 17 -897 25 -1505 8 -608 17 -1224 20 -1370 3
-146 10 -582 15 -970 6 -388 15 -943 20 -1235 5 -291 14 -858 20 -1260 15
-1100 30 -2058 40 -2665 6 -300 15 -1080 20 -1735 12 -1467 30 -2221 51 -2130
11 47 10 814 -1 1460 -5 325 -15 957 -20 1405 -6 448 -15 1101 -20 1450 -5
349 -14 973 -20 1385 -14 1015 -28 1912 -40 2555 -5 294 -14 832 -20 1195 -23
1502 -30 1926 -40 2445 -15 848 -20 1407 -10 1130 5 -124 16 -670 24 -1215 28
-1762 52 -3181 76 -4450 5 -286 15 -855 20 -1265 6 -410 17 -1134 26 -1610 8
-476 18 -1304 24 -1840 15 -1627 34 -2658 50 -2673 7 -8 1031 3 2130 23 879
16 1676 30 2365 40 358 6 920 15 1250 20 330 6 1183 14 1895 20 712 5 1491 11
1730 14 831 11 1975 14 1885 6 -101 -9 -1721 -26 -3265 -35 -1238 -7 -2435
-22 -4600 -60 -465 -8 -1187 -19 -1605 -25 -767 -10 -1399 -26 -1620 -40 -185
-11 991 -12 1623 0 596 11 1522 24 2702 40 415 6 1059 15 1430 20 371 6 1280
15 2020 20 3643 27 4591 33 5125 35 319 1 870 8 1225 14 355 7 1040 12 1523
11 l877 -1 0 22 0 22 -857 -7 c-1383 -11 -4008 -18 -4000 -10 7 7 1270 18
3575 30 l1282 7 0 207 c0 207 0 208 -22 213 -13 4 -151 9 -308 12 -157 4 -330
8 -385 11 -278 12 -1105 11 -1325 -1 -129 -7 -329 -18 -445 -24 -315 -17 -400
-22 -510 -31 -55 -5 -262 -5 -460 -2 -393 8 -889 7 -1000 -2 -222 -17 -368
-21 -705 -19 -633 4 -2363 2 -2492 -2 -115 -5 -350 -8 -1638 -20 -278 -2 -525
-7 -550 -9 -25 -2 -189 -7 -365 -11 -176 -3 -356 -8 -400 -10 -44 -2 -199 -7
-345 -10 -146 -3 -321 -8 -390 -10 -69 -3 -231 -7 -360 -10 -129 -3 -314 -7
-410 -10 -96 -3 -269 -7 -385 -10 -115 -3 -304 -7 -420 -10 -115 -3 -313 -7
-440 -10 -219 -5 -320 -8 -625 -20 -74 -3 -207 -7 -295 -10 -144 -5 -381 -14
-805 -30 -80 -4 -170 -8 -199 -11 -30 -2 -163 -5 -295 -5 -405 -1 -565 32
-664 140 -36 39 -75 109 -86 156 -38 155 -39 182 -42 1300 -3 1310 -5 1509
-15 1775 -18 497 -41 1386 -54 2030 -13 686 -22 1059 -50 2045 -8 286 -22 795
-30 1130 -17 708 -23 973 -30 1215 -3 96 -7 288 -10 425 -3 138 -7 340 -10
450 -3 110 -7 353 -10 540 -12 807 -19 1063 -40 1395 -3 41 -12 185 -20 320
-8 135 -17 277 -20 315 -10 151 -23 512 -30 855 -8 360 -44 1427 -50 1475 -2
22 -7 74 -10 115 -8 109 -54 508 -71 625 -8 54 -35 189 -59 300 -24 110 -58
283 -75 385 -17 102 -42 226 -56 276 -14 49 -31 142 -37 205 l-12 114 -141 3
-141 3 -7 -32z m361 -1956 c-2 -32 -3 -8 -3 52 0 61 1 87 3 58 2 -29 2 -78 0
-110z m10 -350 c-1 -43 -3 -8 -3 77 0 85 2 120 3 78 2 -43 2 -113 0 -155z m10
-480 c-1 -43 -3 -10 -3 72 0 83 2 118 3 78 2 -40 2 -107 0 -150z m10 -305 c-2
-24 -4 -5 -4 42 0 47 2 66 4 43 2 -24 2 -62 0 -85z m30 -1390 c-3 -8 -6 -5 -6
6 -1 11 2 17 5 13 3 -3 4 -12 1 -19z m12036 -13285 c-7 -2 -19 -2 -25 0 -7 3
-2 5 12 5 14 0 19 -2 13 -5z m-12326 -315 c-3 -8 -6 -5 -6 6 -1 11 2 17 5 13
3 -3 4 -12 1 -19z"/>
<path d="M3384 18820 c0 -52 1 -74 3 -47 2 26 2 68 0 95 -2 26 -3 4 -3 -48z"/>
<path d="M3151 17904 c0 -11 3 -14 6 -6 3 7 2 16 -1 19 -3 4 -6 -2 -5 -13z"/>
<path d="M3151 17814 c0 -11 3 -14 6 -6 3 7 2 16 -1 19 -3 4 -6 -2 -5 -13z"/>
<path d="M3151 17774 c0 -11 3 -14 6 -6 3 7 2 16 -1 19 -3 4 -6 -2 -5 -13z"/>
<path d="M3154 16415 c0 -581 3 -925 7 -800 8 282 8 1212 0 1555 -5 161 -7
-136 -7 -755z"/>
<path d="M3414 17075 c0 -93 2 -133 3 -88 2 45 2 122 0 170 -1 48 -3 12 -3
-82z"/>
<path d="M3424 16470 c0 -151 2 -213 3 -137 2 75 2 199 0 275 -1 75 -3 13 -3
-138z"/>
<path d="M3434 15950 c0 -96 2 -136 3 -87 2 48 2 126 0 175 -1 48 -3 8 -3 -88z"/>
<path d="M3584 4260 c0 -179 2 -252 3 -162 2 89 2 235 0 325 -1 89 -3 16 -3
-163z"/>
<path d="M3581 3904 c0 -11 3 -14 6 -6 3 7 2 16 -1 19 -3 4 -6 -2 -5 -13z"/>
<path d="M3589 3863 c-2 -10 -2 -130 1 -268 l6 -250 2 268 c1 147 0 267 -2
267 -2 0 -5 -8 -7 -17z"/>
<path d="M17008 2513 c105 -2 279 -2 385 0 105 1 19 2 -193 2 -212 0 -298 -1
-192 -2z"/>
<path d="M14910 2500 c14 -10 1089 -4 1099 6 2 2 -247 4 -555 4 -374 0 -554
-4 -544 -10z"/>
<path d="M12153 2483 c48 -2 125 -2 170 0 45 1 6 3 -88 3 -93 0 -130 -2 -82
-3z"/>
<path d="M10587 2473 c18 -2 50 -2 70 0 21 2 7 4 -32 4 -38 0 -55 -2 -38 -4z"/>
<path d="M9618 2463 c84 -2 219 -2 300 0 81 1 12 3 -153 3 -165 0 -231 -2
-147 -3z"/>
<path d="M8678 2453 c67 -2 177 -2 245 0 67 1 12 3 -123 3 -135 0 -190 -2
-122 -3z"/>
<path d="M7688 2443 c6 -2 18 -2 25 0 6 3 1 5 -13 5 -14 0 -19 -2 -12 -5z"/>
<path d="M7743 2443 c9 -2 23 -2 30 0 6 3 -1 5 -18 5 -16 0 -22 -2 -12 -5z"/>
<path d="M7798 2443 c6 -2 18 -2 25 0 6 3 1 5 -13 5 -14 0 -19 -2 -12 -5z"/>
<path d="M4902 2413 c70 -2 187 -2 260 0 73 1 16 3 -127 3 -143 0 -203 -2
-133 -3z"/>
<path d="M15025 2150 c-4 -6 5 -10 20 -10 15 0 24 4 20 10 -3 6 -12 10 -20 10
-8 0 -17 -4 -20 -10z"/>
<path d="M15094 2149 c-3 -6 70 -9 205 -8 116 0 214 5 217 10 3 6 -79 9 -205
9 -125 -1 -213 -5 -217 -11z"/>
<path d="M15558 2153 c7 -3 16 -2 19 1 4 3 -2 6 -13 5 -11 0 -14 -3 -6 -6z"/>
<path d="M20110 2130 c-62 -10 225 -10 310 0 49 5 24 7 -100 7 -91 0 -185 -3
-210 -7z"/>
<path d="M17039 2126 c-2 -2 -620 -7 -1374 -10 -753 -4 -1395 -9 -1425 -12
-30 -4 -2242 -7 -4915 -8 -2673 0 -4808 -4 -4745 -7 312 -17 12301 -2 12695
16 61 2 274 5 474 5 200 0 362 2 360 4 -5 5 -1065 17 -1070 12z"/>
<path d="M3380 2090 c0 -5 5 -10 11 -10 5 0 7 5 4 10 -3 6 -8 10 -11 10 -2 0
-4 -4 -4 -10z"/>
</g>
</svg>
